<svg width="61" height="27" viewBox="0 0 61 27" fill="none" xmlns="http://www.w3.org/2000/svg">
<rect x="0.290039" y="0.949707" width="59.8877" height="25.5562" rx="12.7781" fill="#FFCC34"/>
<path d="M22.5465 11.5518C23.2848 11.5518 23.9498 11.7246 24.5416 12.0703C25.1393 12.4102 25.6022 12.8936 25.9303 13.5205C26.2643 14.1475 26.4313 14.8711 26.4313 15.6914C26.4313 17.127 25.9977 18.2285 25.1305 18.9961C24.2692 19.7637 22.9625 20.1475 21.2106 20.1475C19.7106 20.1475 18.486 19.916 17.5367 19.4531V16.6055C18.0465 16.8398 18.6207 17.0332 19.2594 17.1855C19.9039 17.3379 20.4576 17.4141 20.9205 17.4141C21.5651 17.4141 22.0602 17.2793 22.4059 17.0098C22.7516 16.7344 22.9244 16.3301 22.9244 15.7969C22.9244 15.3047 22.7487 14.9209 22.3971 14.6455C22.0455 14.3701 21.5123 14.2324 20.7975 14.2324C20.2526 14.2324 19.6637 14.335 19.0309 14.54L17.7565 13.9072L18.2399 7.12207H25.5699V10.0137H21.193L21.0348 11.71C21.4918 11.6221 21.817 11.5752 22.0104 11.5693C22.2037 11.5576 22.3824 11.5518 22.5465 11.5518Z" fill="white"/>
<g clip-path="url(#clip0_1_799)">
<path d="M44.1606 12.6493C44.403 12.4058 44.4859 12.0516 44.3815 11.7195C44.2772 11.3874 44.0071 11.1534 43.6726 11.1028L40.7048 10.6568C40.5789 10.6379 40.4685 10.5556 40.4132 10.4386L39.0843 7.66813C38.937 7.35503 38.6331 7.16211 38.2955 7.16211C37.9579 7.16211 37.6572 7.35503 37.5068 7.66813L36.1809 10.4386C36.1257 10.5556 36.0152 10.6379 35.8894 10.6568L32.9216 11.1028C32.587 11.1534 32.3139 11.3874 32.2095 11.7195C32.1052 12.0516 32.1911 12.4058 32.4336 12.6493L34.5819 14.8062C34.674 14.8979 34.7139 15.0308 34.6924 15.1604L34.186 18.206C34.1431 18.4749 34.2106 18.7374 34.3794 18.9398C34.6433 19.2624 35.0975 19.3573 35.4658 19.1612L38.1145 17.7253C38.2249 17.6652 38.3661 17.6652 38.4766 17.7253L41.1314 19.1643C41.2603 19.2339 41.3984 19.2719 41.5396 19.2719C41.7974 19.2719 42.046 19.1517 42.2148 18.9461C42.3836 18.7405 42.4511 18.478 42.4081 18.2124L41.9017 15.1668C41.8802 15.0371 41.9232 14.9043 42.0122 14.8125L44.1606 12.6493Z" fill="white"/>
</g>
<defs>
<clipPath id="clip0_1_799">
<rect width="14.489" height="14.3115" fill="white" transform="translate(32.166 6.06055)"/>
</clipPath>
</defs>
</svg>
